<?xml version="1.0" encoding="UTF-8" standalone="no"?>
<svg
   xmlns:dc="http://purl.org/dc/elements/1.1/"
   xmlns:cc="http://creativecommons.org/ns#"
   xmlns:rdf="http://www.w3.org/1999/02/22-rdf-syntax-ns#"
   xmlns:svg="http://www.w3.org/2000/svg"
   xmlns="http://www.w3.org/2000/svg"
   xmlns:sodipodi="http://sodipodi.sourceforge.net/DTD/sodipodi-0.dtd"
   xmlns:inkscape="http://www.inkscape.org/namespaces/inkscape"
   width="200"
   height="100"
   viewBox="0 0 52.916666 26.458333"
   version="1.1"
   id="svg8"
   inkscape:version="1.0.1 (1.0.1+r73)"
   sodipodi:docname="pac-man-button.svg">
  <defs
     id="defs2">
    <filter
       style="color-interpolation-filters:sRGB;"
       inkscape:label="Colorize"
       id="filter1921">
      <feComposite
         in2="SourceGraphic"
         operator="arithmetic"
         k1="0"
         k2="1"
         result="composite1"
         id="feComposite1907" />
      <feColorMatrix
         in="composite1"
         values="1"
         type="saturate"
         result="colormatrix1"
         id="feColorMatrix1909" />
      <feFlood
         flood-opacity="1"
         flood-color="rgb(47,202,87)"
         result="flood1"
         id="feFlood1911" />
      <feBlend
         in="flood1"
         in2="colormatrix1"
         mode="multiply"
         result="blend1"
         id="feBlend1913" />
      <feBlend
         in2="blend1"
         mode="screen"
         result="blend2"
         id="feBlend1915" />
      <feColorMatrix
         in="blend2"
         values="1"
         type="saturate"
         result="colormatrix2"
         id="feColorMatrix1917" />
      <feComposite
         in="colormatrix2"
         in2="SourceGraphic"
         operator="in"
         k2="1"
         result="composite2"
         id="feComposite1919" />
    </filter>
  </defs>
  <sodipodi:namedview
     id="base"
     pagecolor="#ffffff"
     bordercolor="#666666"
     borderopacity="1.0"
     inkscape:pageopacity="0.0"
     inkscape:pageshadow="2"
     inkscape:zoom="1.979899"
     inkscape:cx="-23.184636"
     inkscape:cy="41.409569"
     inkscape:document-units="px"
     inkscape:current-layer="layer2"
     inkscape:document-rotation="0"
     showgrid="false"
     units="px"
     width="200mm"
     inkscape:window-width="1848"
     inkscape:window-height="1016"
     inkscape:window-x="72"
     inkscape:window-y="27"
     inkscape:window-maximized="1"
     showguides="false" />
  <metadata
     id="metadata5">
    <rdf:RDF>
      <cc:Work
         rdf:about="">
        <dc:format>image/svg+xml</dc:format>
        <dc:type
           rdf:resource="http://purl.org/dc/dcmitype/StillImage" />
        <dc:title />
      </cc:Work>
    </rdf:RDF>
  </metadata>
  <g
     inkscape:label="Layer 1"
     inkscape:groupmode="layer"
     id="layer1">
    <rect
       style="fill:none;fill-opacity:1;fill-rule:evenodd;stroke:#020000;stroke-width:1.32292;stroke-linejoin:miter;stroke-miterlimit:3.6;stroke-dasharray:none;stroke-opacity:1;paint-order:fill markers stroke"
       id="rect885"
       width="51.593746"
       height="25.135412"
       x="0.66145992"
       y="0.6614604"
       ry="1.5875" />
  </g>
  <g
     inkscape:groupmode="layer"
     id="layer2"
     inkscape:label="Layer 2">
    <rect
       style="fill:none;fill-opacity:1;fill-rule:nonzero;stroke:#000000;stroke-width:0;stroke-linejoin:bevel;stroke-miterlimit:3.5999999;stroke-dasharray:none;stroke-opacity:1;paint-order:fill markers stroke"
       id="rect1156"
       width="18.016443"
       height="5.7882447"
       x="28.185211"
       y="28.432636"
       ry="0.52679336" />
    <path
       style="fill:#000000;stroke-width:1"
       d="m 36.264732,18.444294 c -6.881556,0.102774 -6.881556,0.102774 -6.881556,-1.036947 0,-1.139721 0,-1.139721 -8.389843,-1.14113 -7.728339,-0.0013 -8.487495,-0.06095 -9.628358,-0.756526 -0.681183,-0.415315 -1.38241,-1.13583 -1.558281,-1.601145 -0.1758713,-0.465316 -0.2448337,-0.97329 -0.1532498,-1.128832 0.091584,-0.155542 2.7017348,-0.282804 5.8003368,-0.282804 5.63382,0 5.63382,0 5.63382,-1.131214 0,-1.131215 0,-1.131215 -5.279002,-1.131215 -4.400199,0 -5.279003,-0.09255 -5.279003,-0.5559247 0,-0.3057582 0.500621,-0.8148049 1.11249,-1.1312148 0.915139,-0.473237 2.886083,-0.5752906 11.110491,-0.5752906 9.998002,0 9.998002,0 11.334233,1.1732269 0.734928,0.6452749 1.435789,1.5698932 1.557469,2.0547062 0.186408,0.742708 0.497532,0.899341 1.976266,0.994935 1.732425,0.111994 1.756535,0.131667 1.872058,1.527474 0.11703,1.414019 0.11703,1.414019 2.001306,1.414019 1.884277,0 1.884277,0 1.768328,1.602554 -0.115948,1.602554 -0.115948,1.602554 -6.997505,1.705328 z"
       id="path3386" />
  </g>
</svg>
