<?xml version="1.0" encoding="UTF-8" standalone="no"?>
<svg
   xmlns:dc="http://purl.org/dc/elements/1.1/"
   xmlns:cc="http://creativecommons.org/ns#"
   xmlns:rdf="http://www.w3.org/1999/02/22-rdf-syntax-ns#"
   xmlns:svg="http://www.w3.org/2000/svg"
   xmlns="http://www.w3.org/2000/svg"
   xmlns:sodipodi="http://sodipodi.sourceforge.net/DTD/sodipodi-0.dtd"
   xmlns:inkscape="http://www.inkscape.org/namespaces/inkscape"
   width="200"
   height="100"
   viewBox="0 0 52.916666 26.458333"
   version="1.1"
   id="svg8"
   inkscape:version="1.0.1 (1.0.1+r73)"
   sodipodi:docname="alien-button.svg">
  <defs
     id="defs2" />
  <sodipodi:namedview
     id="base"
     pagecolor="#ffffff"
     bordercolor="#666666"
     borderopacity="1.0"
     inkscape:pageopacity="0.0"
     inkscape:pageshadow="2"
     inkscape:zoom="1.979899"
     inkscape:cx="11.612317"
     inkscape:cy="99.390183"
     inkscape:document-units="px"
     inkscape:current-layer="layer2"
     inkscape:document-rotation="0"
     showgrid="false"
     units="px"
     width="200mm"
     inkscape:window-width="1848"
     inkscape:window-height="1016"
     inkscape:window-x="72"
     inkscape:window-y="27"
     inkscape:window-maximized="1"
     showguides="false" />
  <metadata
     id="metadata5">
    <rdf:RDF>
      <cc:Work
         rdf:about="">
        <dc:format>image/svg+xml</dc:format>
        <dc:type
           rdf:resource="http://purl.org/dc/dcmitype/StillImage" />
        <dc:title></dc:title>
      </cc:Work>
    </rdf:RDF>
  </metadata>
  <g
     inkscape:label="Layer 1"
     inkscape:groupmode="layer"
     id="layer1">
    <rect
       style="fill:none;fill-opacity:1;fill-rule:evenodd;stroke:#020000;stroke-width:1.32292;stroke-linejoin:miter;stroke-miterlimit:3.6;stroke-dasharray:none;stroke-opacity:1;paint-order:fill markers stroke"
       id="rect885"
       width="51.593746"
       height="25.135412"
       x="0.66145992"
       y="0.6614604"
       ry="1.5875" />
  </g>
  <g
     inkscape:groupmode="layer"
     id="layer2"
     inkscape:label="Layer 2">
    <path
       style="fill:#000000;stroke-width:0.999998"
       d="m 16.152045,20.75363 c -0.568163,-0.568477 -0.195978,-0.873189 1.208612,-0.989503 1.435686,-0.118889 1.472808,-0.161937 1.593356,-1.847745 0.136856,-1.913871 -0.252544,-2.376476 -2.008472,-2.386053 -0.633052,-0.0035 -0.998109,-0.172716 -0.858826,-0.398204 0.133242,-0.215709 1.025612,-0.392198 1.983044,-0.392198 h 1.740785 v -1.568792 c 0,-1.397764 0.103339,-1.568793 0.947896,-1.568793 1.813942,0 2.18796,-0.374636 2.18796,-2.1915775 0,-1.4833322 -0.127207,-1.7474026 -0.940085,-1.9515346 -2.001918,-0.5027264 -2.769075,-0.092383 -2.979735,1.5938253 -0.184596,1.4775858 -0.264358,1.5607988 -1.371937,1.4312948 -0.64677,-0.07562 -1.30824,-0.218406 -1.469932,-0.317295 -0.590183,-0.3609462 -0.273109,-1.3889965 0.489977,-1.5886579 0.62636,-0.163887 0.783964,-0.5349644 0.783964,-1.8458332 0,-0.9023899 -0.21167,-1.8524959 -0.470378,-2.1113466 -0.36585,-0.3660515 0.544002,-0.4706377 4.094334,-0.4706377 h 4.564712 l 0.119473,1.8629408 0.119472,1.8629407 2.035624,0.1177723 2.035623,0.1177724 0.120278,-1.8826635 0.120278,-1.8826636 4.017815,-0.1117698 4.017816,-0.1117699 v 3.3474037 3.3474033 h -1.175946 c -1.082617,0 -1.175946,-0.108944 -1.175946,-1.3726928 V 8.0725601 H 33.90042 31.919033 l 0.119472,1.8629407 c 0.115515,1.8012302 0.164918,1.8694362 1.49141,2.0590402 1.018184,0.145534 1.386461,0.398354 1.428265,0.980495 0.03098,0.431417 0.07508,1.005007 0.098,1.274643 0.0258,0.303542 0.638797,0.490248 1.609595,0.490248 1.401766,0 1.567928,0.101631 1.567928,0.959006 0,0.865835 -0.180893,0.97062 -1.861915,1.078545 l -1.861914,0.119538 -0.118481,2.05904 -0.11848,2.05904 h -8.929771 c -4.911374,0 -9.047366,-0.11766 -9.191093,-0.261466 z M 27.181684,16.798967 27.062211,14.936026 25.004306,14.81748 c -1.235393,-0.07117 -2.075313,0.0464 -2.101459,0.294149 -0.02396,0.226981 -0.04355,0.765672 -0.04355,1.19709 0,2.407296 -0.05207,2.353188 2.264485,2.353188 h 2.177379 z m 5.87973,-1.568793 -0.119472,-1.86294 -1.861915,-0.119539 -1.861914,-0.119538 V 11.384755 9.6413523 h -1.959911 -1.95991 v 1.7434027 1.743402 l 1.861915,0.119538 1.861915,0.119539 0.119472,1.86294 0.119473,1.862941 h 1.95991 1.95991 z"
       id="path1752" />
    <rect
       style="fill:none;fill-opacity:1;fill-rule:nonzero;stroke:#000000;stroke-width:0;stroke-linejoin:bevel;stroke-miterlimit:3.5999999;stroke-dasharray:none;stroke-opacity:1;paint-order:fill markers stroke"
       id="rect1156"
       width="18.016443"
       height="5.7882447"
       x="28.185211"
       y="28.432636"
       ry="0.52679336" />
  </g>
</svg>
